<svg xmlns="http://www.w3.org/2000/svg" viewBox="0 0 88.6 36" width="88.6" height="36" role="img" aria-label="Ape">
  <defs>
    <radialGradient id="apeMark" cx="50%" cy="34%" r="65%">
      <stop offset="0%" stop-color="#f6d579"/>
      <stop offset="100%" stop-color="#c1881f"/>
    </radialGradient>
  </defs>
  <circle cx="18" cy="18" r="18" fill="url(#apeMark)"/>
  <circle cx="18" cy="18" r="12" fill="#0a1228"/>
  <circle cx="12.5" cy="15.5" r="2.5" fill="#f6d579"/>
  <circle cx="23.5" cy="15.5" r="2.5" fill="#f6d579"/>
  <g fill="#0a1228" transform="translate(43.000,23.872) scale(0.02700,-0.02700)">
    <path transform="translate(0.0,0)" d="M-33 0 -30 16 28 47 379 665H458L587 51L645 16L641 0H352L355 16L442 52L408 219H187L92 49L167 16L163 0ZM217 272H398L350 511Z"/>
    <path transform="translate(717.0,0)" d="M-49 -230V-214L9 -184L109 384L44 418V430L228 466H231V357H237Q280 415 313.5 440.5Q347 466 393 466Q438 466 466.0 428.5Q494 391 494 321Q494 255 473.5 195.0Q453 135 417.0 89.0Q381 43 334.0 16.5Q287 -10 234 -10Q200 -10 171 -2L140 -183L224 -214V-230ZM318 374Q292 374 267.5 352.0Q243 330 223 303L184 75Q194 55 207.5 43.5Q221 32 242 32Q276 32 304.0 66.5Q332 101 348.0 159.0Q364 217 364 288Q364 328 354.0 351.0Q344 374 318 374Z"/>
    <path transform="translate(1249.0,0)" d="M194 -10Q112 -10 73.5 36.5Q35 83 35 162Q35 218 55.5 272.0Q76 326 113.0 370.0Q150 414 201.0 440.0Q252 466 312 466Q364 466 391.0 442.5Q418 419 418 386Q418 357 396.0 331.5Q374 306 319.5 282.5Q265 259 165 237Q164 224 164 211Q164 157 191.5 125.5Q219 94 264 94Q295 94 323.0 108.5Q351 123 385 154H388L403 140Q380 100 348.5 66.0Q317 32 277.5 11.0Q238 -10 194 -10ZM279 425Q242 425 211.0 383.0Q180 341 169 274Q253 296 285.5 324.5Q318 353 318 388Q318 403 309.0 414.0Q300 425 279 425Z"/>
  </g>
</svg>
