<svg xmlns="http://www.w3.org/2000/svg" width="2400" height="1860" viewBox="0 0 2400 1860" role="img" aria-labelledby="title desc">
<title id="title">Ainekio ESP32-P4-WIFI6 to XIITIA 1.9-inch ST7789 LCD pinout and wiring</title>
<desc id="desc">P4 component-side view with USB-C at top. Right header R5 supplies LCD VCC and BLK at 3.3 volts. R6 GPIO20 goes to SCL, R7 GPIO21 to SDA, R8 ground to GND, R9 GPIO22 to CS, R10 GPIO23 to DC, and R12 GPIO26 to RES. The LCD front view shows its eight printed pins in order GND VCC SCL SDA RES DC CS BLK. Disconnect power while wiring.</desc>
<style>text{font-family:"DejaVu Sans",Arial,sans-serif}.bold{font-weight:700}</style>
<rect x="0" y="0" width="2400" height="1860" rx="0" fill="#f5f7fa"/>
<text x="70" y="108" font-size="65" fill="#18232d" text-anchor="start" class="bold">AINEKIO · P4 → 1.9-INCH LCD</text>
<text x="74" y="162" font-size="28" fill="#067eac" text-anchor="start" class="bold">XIITIA ST7789 · 320 × 170 LANDSCAPE · GPIO / SPI CONNECTION</text>
<rect x="70" y="201" width="2260" height="65" rx="12" fill="#fff0df"/>
<text x="96" y="245" font-size="28" fill="#18232d" text-anchor="start" class="bold">Remove power before wiring. Match the printed labels on your delivered boards.</text>
<rect x="70" y="305" width="960" height="925" rx="18" fill="#fff" stroke="#d7e0e8" stroke-width="2"/>
<rect x="70" y="305" width="960" height="83" rx="12" fill="#18232d"/>
<text x="102" y="361" font-size="35" fill="#fff" text-anchor="start" class="bold">ESP32-P4-WIFI6</text>
<text x="102" y="429" font-size="25" fill="#596879" text-anchor="start">Front / component side · USB-C at top</text>
<g transform="translate(-588 342) scale(0.56)">
<rect xmlns="http://www.w3.org/2000/svg" x="1310" y="225" width="380" height="1210" rx="24" fill="#26333b" stroke="#18232d" stroke-width="4" />

<circle xmlns="http://www.w3.org/2000/svg" cx="1336" cy="251" r="17" fill="#f5f7fa" stroke="#b5b2a1" stroke-width="5" />

<circle xmlns="http://www.w3.org/2000/svg" cx="1336" cy="1400" r="17" fill="#f5f7fa" stroke="#b5b2a1" stroke-width="5" />

<circle xmlns="http://www.w3.org/2000/svg" cx="1664" cy="251" r="17" fill="#f5f7fa" stroke="#b5b2a1" stroke-width="5" />

<circle xmlns="http://www.w3.org/2000/svg" cx="1664" cy="1400" r="17" fill="#f5f7fa" stroke="#b5b2a1" stroke-width="5" />

<rect xmlns="http://www.w3.org/2000/svg" x="1422" y="211" width="156" height="126" rx="12" fill="#bbc1c4" stroke="#e5e8eb" stroke-width="4" />

<rect xmlns="http://www.w3.org/2000/svg" x="1440" y="222" width="120" height="27" rx="8" fill="#39434b" />

<text xmlns="http://www.w3.org/2000/svg" x="1500" y="302" font-size="25" fill="#18232d" text-anchor="middle" class="bold">USB-C</text>

<text xmlns="http://www.w3.org/2000/svg" x="1500" y="374" font-size="18" fill="#d8e2e8" text-anchor="middle" class="bold">POWER / FLASH / LOGS</text>

<rect xmlns="http://www.w3.org/2000/svg" x="1439" y="396" width="122" height="63" rx="7" fill="#56636a" />

<text xmlns="http://www.w3.org/2000/svg" x="1500" y="437" font-size="27" fill="#cfd6da" text-anchor="middle" class="bold">4R7</text>

<rect xmlns="http://www.w3.org/2000/svg" x="1398" y="493" width="70" height="48" rx="4" fill="#c9ced0" />

<circle xmlns="http://www.w3.org/2000/svg" cx="1433" cy="517" r="16" fill="#47515c" />

<text xmlns="http://www.w3.org/2000/svg" x="1433" y="574" font-size="18" fill="#e2e9ef" text-anchor="middle" class="bold">BOOT</text>

<rect xmlns="http://www.w3.org/2000/svg" x="1548" y="493" width="70" height="48" rx="4" fill="#c9ced0" />

<circle xmlns="http://www.w3.org/2000/svg" cx="1583" cy="517" r="16" fill="#47515c" />

<text xmlns="http://www.w3.org/2000/svg" x="1583" y="574" font-size="18" fill="#e2e9ef" text-anchor="middle" class="bold">RST</text>

<rect xmlns="http://www.w3.org/2000/svg" x="1371" y="617" width="258" height="38" rx="4" fill="#e9e2d1" />

<rect xmlns="http://www.w3.org/2000/svg" x="1380" y="623" width="240" height="11" rx="2" fill="#1a2027" />

<line xmlns="http://www.w3.org/2000/svg" x1="1384" y1="642" x2="1384" y2="651" stroke="#ad9853" stroke-width="3" />

<line xmlns="http://www.w3.org/2000/svg" x1="1394" y1="642" x2="1394" y2="651" stroke="#ad9853" stroke-width="3" />

<line xmlns="http://www.w3.org/2000/svg" x1="1404" y1="642" x2="1404" y2="651" stroke="#ad9853" stroke-width="3" />

<line xmlns="http://www.w3.org/2000/svg" x1="1414" y1="642" x2="1414" y2="651" stroke="#ad9853" stroke-width="3" />

<line xmlns="http://www.w3.org/2000/svg" x1="1424" y1="642" x2="1424" y2="651" stroke="#ad9853" stroke-width="3" />

<line xmlns="http://www.w3.org/2000/svg" x1="1434" y1="642" x2="1434" y2="651" stroke="#ad9853" stroke-width="3" />

<line xmlns="http://www.w3.org/2000/svg" x1="1444" y1="642" x2="1444" y2="651" stroke="#ad9853" stroke-width="3" />

<line xmlns="http://www.w3.org/2000/svg" x1="1454" y1="642" x2="1454" y2="651" stroke="#ad9853" stroke-width="3" />

<line xmlns="http://www.w3.org/2000/svg" x1="1464" y1="642" x2="1464" y2="651" stroke="#ad9853" stroke-width="3" />

<line xmlns="http://www.w3.org/2000/svg" x1="1474" y1="642" x2="1474" y2="651" stroke="#ad9853" stroke-width="3" />

<line xmlns="http://www.w3.org/2000/svg" x1="1484" y1="642" x2="1484" y2="651" stroke="#ad9853" stroke-width="3" />

<line xmlns="http://www.w3.org/2000/svg" x1="1494" y1="642" x2="1494" y2="651" stroke="#ad9853" stroke-width="3" />

<line xmlns="http://www.w3.org/2000/svg" x1="1504" y1="642" x2="1504" y2="651" stroke="#ad9853" stroke-width="3" />

<line xmlns="http://www.w3.org/2000/svg" x1="1514" y1="642" x2="1514" y2="651" stroke="#ad9853" stroke-width="3" />

<line xmlns="http://www.w3.org/2000/svg" x1="1524" y1="642" x2="1524" y2="651" stroke="#ad9853" stroke-width="3" />

<line xmlns="http://www.w3.org/2000/svg" x1="1534" y1="642" x2="1534" y2="651" stroke="#ad9853" stroke-width="3" />

<line xmlns="http://www.w3.org/2000/svg" x1="1544" y1="642" x2="1544" y2="651" stroke="#ad9853" stroke-width="3" />

<line xmlns="http://www.w3.org/2000/svg" x1="1554" y1="642" x2="1554" y2="651" stroke="#ad9853" stroke-width="3" />

<line xmlns="http://www.w3.org/2000/svg" x1="1564" y1="642" x2="1564" y2="651" stroke="#ad9853" stroke-width="3" />

<line xmlns="http://www.w3.org/2000/svg" x1="1574" y1="642" x2="1574" y2="651" stroke="#ad9853" stroke-width="3" />

<line xmlns="http://www.w3.org/2000/svg" x1="1584" y1="642" x2="1584" y2="651" stroke="#ad9853" stroke-width="3" />

<line xmlns="http://www.w3.org/2000/svg" x1="1594" y1="642" x2="1594" y2="651" stroke="#ad9853" stroke-width="3" />

<line xmlns="http://www.w3.org/2000/svg" x1="1604" y1="642" x2="1604" y2="651" stroke="#ad9853" stroke-width="3" />

<line xmlns="http://www.w3.org/2000/svg" x1="1614" y1="642" x2="1614" y2="651" stroke="#ad9853" stroke-width="3" />

<text xmlns="http://www.w3.org/2000/svg" x="1500" y="685" font-size="22" fill="#e2e9ef" text-anchor="middle" class="bold">DISPLAY</text>

<rect xmlns="http://www.w3.org/2000/svg" x="1371" y="841" width="258" height="38" rx="4" fill="#e9e2d1" />

<rect xmlns="http://www.w3.org/2000/svg" x="1380" y="847" width="240" height="11" rx="2" fill="#1a2027" />

<line xmlns="http://www.w3.org/2000/svg" x1="1384" y1="866" x2="1384" y2="875" stroke="#ad9853" stroke-width="3" />

<line xmlns="http://www.w3.org/2000/svg" x1="1394" y1="866" x2="1394" y2="875" stroke="#ad9853" stroke-width="3" />

<line xmlns="http://www.w3.org/2000/svg" x1="1404" y1="866" x2="1404" y2="875" stroke="#ad9853" stroke-width="3" />

<line xmlns="http://www.w3.org/2000/svg" x1="1414" y1="866" x2="1414" y2="875" stroke="#ad9853" stroke-width="3" />

<line xmlns="http://www.w3.org/2000/svg" x1="1424" y1="866" x2="1424" y2="875" stroke="#ad9853" stroke-width="3" />

<line xmlns="http://www.w3.org/2000/svg" x1="1434" y1="866" x2="1434" y2="875" stroke="#ad9853" stroke-width="3" />

<line xmlns="http://www.w3.org/2000/svg" x1="1444" y1="866" x2="1444" y2="875" stroke="#ad9853" stroke-width="3" />

<line xmlns="http://www.w3.org/2000/svg" x1="1454" y1="866" x2="1454" y2="875" stroke="#ad9853" stroke-width="3" />

<line xmlns="http://www.w3.org/2000/svg" x1="1464" y1="866" x2="1464" y2="875" stroke="#ad9853" stroke-width="3" />

<line xmlns="http://www.w3.org/2000/svg" x1="1474" y1="866" x2="1474" y2="875" stroke="#ad9853" stroke-width="3" />

<line xmlns="http://www.w3.org/2000/svg" x1="1484" y1="866" x2="1484" y2="875" stroke="#ad9853" stroke-width="3" />

<line xmlns="http://www.w3.org/2000/svg" x1="1494" y1="866" x2="1494" y2="875" stroke="#ad9853" stroke-width="3" />

<line xmlns="http://www.w3.org/2000/svg" x1="1504" y1="866" x2="1504" y2="875" stroke="#ad9853" stroke-width="3" />

<line xmlns="http://www.w3.org/2000/svg" x1="1514" y1="866" x2="1514" y2="875" stroke="#ad9853" stroke-width="3" />

<line xmlns="http://www.w3.org/2000/svg" x1="1524" y1="866" x2="1524" y2="875" stroke="#ad9853" stroke-width="3" />

<line xmlns="http://www.w3.org/2000/svg" x1="1534" y1="866" x2="1534" y2="875" stroke="#ad9853" stroke-width="3" />

<line xmlns="http://www.w3.org/2000/svg" x1="1544" y1="866" x2="1544" y2="875" stroke="#ad9853" stroke-width="3" />

<line xmlns="http://www.w3.org/2000/svg" x1="1554" y1="866" x2="1554" y2="875" stroke="#ad9853" stroke-width="3" />

<line xmlns="http://www.w3.org/2000/svg" x1="1564" y1="866" x2="1564" y2="875" stroke="#ad9853" stroke-width="3" />

<line xmlns="http://www.w3.org/2000/svg" x1="1574" y1="866" x2="1574" y2="875" stroke="#ad9853" stroke-width="3" />

<line xmlns="http://www.w3.org/2000/svg" x1="1584" y1="866" x2="1584" y2="875" stroke="#ad9853" stroke-width="3" />

<line xmlns="http://www.w3.org/2000/svg" x1="1594" y1="866" x2="1594" y2="875" stroke="#ad9853" stroke-width="3" />

<line xmlns="http://www.w3.org/2000/svg" x1="1604" y1="866" x2="1604" y2="875" stroke="#ad9853" stroke-width="3" />

<line xmlns="http://www.w3.org/2000/svg" x1="1614" y1="866" x2="1614" y2="875" stroke="#ad9853" stroke-width="3" />

<text xmlns="http://www.w3.org/2000/svg" x="1500" y="909" font-size="22" fill="#e2e9ef" text-anchor="middle" class="bold">CAMERA</text>

<rect xmlns="http://www.w3.org/2000/svg" x="1434" y="716" width="132" height="86" rx="4" fill="#151b20" stroke="#6a7279" stroke-width="2" />

<text xmlns="http://www.w3.org/2000/svg" x="1500" y="765" font-size="21" fill="#b5c3cb" text-anchor="middle" class="bold">FLASH</text>

<rect xmlns="http://www.w3.org/2000/svg" x="1414" y="953" width="172" height="54" rx="4" fill="#18232d" stroke="#829498" stroke-width="2" />

<circle xmlns="http://www.w3.org/2000/svg" cx="1434" cy="978" r="9" fill="#d9bd6b" />

<circle xmlns="http://www.w3.org/2000/svg" cx="1478" cy="978" r="9" fill="#d9bd6b" />

<circle xmlns="http://www.w3.org/2000/svg" cx="1522" cy="978" r="9" fill="#d9bd6b" />

<circle xmlns="http://www.w3.org/2000/svg" cx="1566" cy="978" r="9" fill="#d9bd6b" />

<text xmlns="http://www.w3.org/2000/svg" x="1500" y="1038" font-size="19" fill="#b5c3cb" text-anchor="middle">C6 UART PADS</text>

<rect xmlns="http://www.w3.org/2000/svg" x="1400" y="1080" width="200" height="64" rx="5" fill="#e2dccc" />

<rect xmlns="http://www.w3.org/2000/svg" x="1427" y="1097" width="9" height="24" rx="0" fill="#a79c75" />

<rect xmlns="http://www.w3.org/2000/svg" x="1465" y="1097" width="9" height="24" rx="0" fill="#a79c75" />

<rect xmlns="http://www.w3.org/2000/svg" x="1503" y="1097" width="9" height="24" rx="0" fill="#a79c75" />

<rect xmlns="http://www.w3.org/2000/svg" x="1541" y="1097" width="9" height="24" rx="0" fill="#a79c75" />

<text xmlns="http://www.w3.org/2000/svg" x="1500" y="1182" font-size="20" fill="#e2e9ef" text-anchor="middle" class="bold">P1 · NATIVE USB HS</text>

<rect xmlns="http://www.w3.org/2000/svg" x="1398" y="1230" width="204" height="106" rx="6" fill="#aab4b9" stroke="#e3e7e9" stroke-width="2" />

<text xmlns="http://www.w3.org/2000/svg" x="1500" y="1275" font-size="24" fill="#18232d" text-anchor="middle" class="bold">ESP32-C6</text>

<text xmlns="http://www.w3.org/2000/svg" x="1500" y="1310" font-size="18" fill="#18232d" text-anchor="middle">Wi-Fi coprocessor</text>

<rect xmlns="http://www.w3.org/2000/svg" x="1398" y="1346" width="204" height="65" rx="0" fill="#192027" />

<line xmlns="http://www.w3.org/2000/svg" x1="1410" y1="1400" x2="1410" y2="1357" stroke="#5b666d" stroke-width="6" />

<line xmlns="http://www.w3.org/2000/svg" x1="1450" y1="1400" x2="1450" y2="1357" stroke="#5b666d" stroke-width="6" />

<line xmlns="http://www.w3.org/2000/svg" x1="1490" y1="1400" x2="1490" y2="1357" stroke="#5b666d" stroke-width="6" />

<line xmlns="http://www.w3.org/2000/svg" x1="1530" y1="1400" x2="1530" y2="1357" stroke="#5b666d" stroke-width="6" />

<line xmlns="http://www.w3.org/2000/svg" x1="1570" y1="1400" x2="1570" y2="1357" stroke="#5b666d" stroke-width="6" />

<line xmlns="http://www.w3.org/2000/svg" x1="1410" y1="1357" x2="1570" y2="1357" stroke="#5b666d" stroke-width="6" />

</g>
<circle cx="159.04000000000008" cy="518.96" r="6" fill="#151b20" stroke="#9e956f" stroke-width="3"/>
<circle cx="344.96000000000004" cy="518.96" r="6" fill="#151b20" stroke="#9e956f" stroke-width="3"/>
<line x1="352.96000000000004" y1="518.96" x2="425" y2="518.96" stroke="#d7e0e8" stroke-width="2"/>
<text x="440" y="526.96" font-size="19" fill="#8794a1" text-anchor="start">R1</text>
<text x="512" y="526.96" font-size="20" fill="#8794a1" text-anchor="start">VBUS</text>
<circle cx="159.04000000000008" cy="543.6" r="6" fill="#151b20" stroke="#9e956f" stroke-width="3"/>
<circle cx="344.96000000000004" cy="543.6" r="6" fill="#151b20" stroke="#9e956f" stroke-width="3"/>
<line x1="352.96000000000004" y1="543.6" x2="425" y2="543.6" stroke="#d7e0e8" stroke-width="2"/>
<text x="440" y="551.6" font-size="19" fill="#8794a1" text-anchor="start">R2</text>
<text x="512" y="551.6" font-size="20" fill="#8794a1" text-anchor="start">VSYS</text>
<circle cx="159.04000000000008" cy="568.24" r="6" fill="#151b20" stroke="#9e956f" stroke-width="3"/>
<circle cx="344.96000000000004" cy="568.24" r="6" fill="#151b20" stroke="#9e956f" stroke-width="3"/>
<line x1="352.96000000000004" y1="568.24" x2="425" y2="568.24" stroke="#d7e0e8" stroke-width="2"/>
<text x="440" y="576.24" font-size="19" fill="#8794a1" text-anchor="start">R3</text>
<text x="512" y="576.24" font-size="20" fill="#8794a1" text-anchor="start">GND</text>
<circle cx="159.04000000000008" cy="592.88" r="6" fill="#151b20" stroke="#9e956f" stroke-width="3"/>
<circle cx="344.96000000000004" cy="592.88" r="6" fill="#151b20" stroke="#9e956f" stroke-width="3"/>
<line x1="352.96000000000004" y1="592.88" x2="425" y2="592.88" stroke="#d7e0e8" stroke-width="2"/>
<text x="440" y="600.88" font-size="19" fill="#8794a1" text-anchor="start">R4</text>
<text x="512" y="600.88" font-size="20" fill="#8794a1" text-anchor="start">EN</text>
<circle cx="159.04000000000008" cy="617.52" r="6" fill="#151b20" stroke="#9e956f" stroke-width="3"/>
<rect x="411" y="604.52" width="580" height="24" rx="4" fill="#eef4f8"/>
<line x1="352.96000000000004" y1="617.52" x2="425" y2="617.52" stroke="#d72f53" stroke-width="3"/>
<circle cx="344.96000000000004" cy="617.52" r="7" fill="#d72f53"/>
<text x="440" y="625.52" font-size="20" fill="#d72f53" text-anchor="start" class="bold">R5</text>
<text x="512" y="625.52" font-size="21" fill="#18232d" text-anchor="start" class="bold">3V3</text>
<text x="751" y="625.52" font-size="21" fill="#d72f53" text-anchor="start" class="bold">→ VCC + BLK</text>
<circle cx="159.04000000000008" cy="642.1600000000001" r="6" fill="#151b20" stroke="#9e956f" stroke-width="3"/>
<rect x="411" y="629.1600000000001" width="580" height="24" rx="4" fill="#eef4f8"/>
<line x1="352.96000000000004" y1="642.1600000000001" x2="425" y2="642.1600000000001" stroke="#067eac" stroke-width="3"/>
<circle cx="344.96000000000004" cy="642.1600000000001" r="7" fill="#067eac"/>
<text x="440" y="650.1600000000001" font-size="20" fill="#067eac" text-anchor="start" class="bold">R6</text>
<text x="512" y="650.1600000000001" font-size="21" fill="#18232d" text-anchor="start" class="bold">GPIO20</text>
<text x="751" y="650.1600000000001" font-size="21" fill="#067eac" text-anchor="start" class="bold">→ SCL</text>
<circle cx="159.04000000000008" cy="666.8" r="6" fill="#151b20" stroke="#9e956f" stroke-width="3"/>
<rect x="411" y="653.8" width="580" height="24" rx="4" fill="#eef4f8"/>
<line x1="352.96000000000004" y1="666.8" x2="425" y2="666.8" stroke="#0a997e" stroke-width="3"/>
<circle cx="344.96000000000004" cy="666.8" r="7" fill="#0a997e"/>
<text x="440" y="674.8" font-size="20" fill="#0a997e" text-anchor="start" class="bold">R7</text>
<text x="512" y="674.8" font-size="21" fill="#18232d" text-anchor="start" class="bold">GPIO21</text>
<text x="751" y="674.8" font-size="21" fill="#0a997e" text-anchor="start" class="bold">→ SDA</text>
<circle cx="159.04000000000008" cy="691.44" r="6" fill="#151b20" stroke="#9e956f" stroke-width="3"/>
<rect x="411" y="678.44" width="580" height="24" rx="4" fill="#eef4f8"/>
<line x1="352.96000000000004" y1="691.44" x2="425" y2="691.44" stroke="#526172" stroke-width="3"/>
<circle cx="344.96000000000004" cy="691.44" r="7" fill="#526172"/>
<text x="440" y="699.44" font-size="20" fill="#526172" text-anchor="start" class="bold">R8</text>
<text x="512" y="699.44" font-size="21" fill="#18232d" text-anchor="start" class="bold">GND</text>
<text x="751" y="699.44" font-size="21" fill="#526172" text-anchor="start" class="bold">→ GND</text>
<circle cx="159.04000000000008" cy="716.08" r="6" fill="#151b20" stroke="#9e956f" stroke-width="3"/>
<rect x="411" y="703.08" width="580" height="24" rx="4" fill="#eef4f8"/>
<line x1="352.96000000000004" y1="716.08" x2="425" y2="716.08" stroke="#b28213" stroke-width="3"/>
<circle cx="344.96000000000004" cy="716.08" r="7" fill="#b28213"/>
<text x="440" y="724.08" font-size="20" fill="#b28213" text-anchor="start" class="bold">R9</text>
<text x="512" y="724.08" font-size="21" fill="#18232d" text-anchor="start" class="bold">GPIO22</text>
<text x="751" y="724.08" font-size="21" fill="#b28213" text-anchor="start" class="bold">→ CS</text>
<circle cx="159.04000000000008" cy="740.72" r="6" fill="#151b20" stroke="#9e956f" stroke-width="3"/>
<rect x="411" y="727.72" width="580" height="24" rx="4" fill="#eef4f8"/>
<line x1="352.96000000000004" y1="740.72" x2="425" y2="740.72" stroke="#9162ba" stroke-width="3"/>
<circle cx="344.96000000000004" cy="740.72" r="7" fill="#9162ba"/>
<text x="440" y="748.72" font-size="20" fill="#9162ba" text-anchor="start" class="bold">R10</text>
<text x="512" y="748.72" font-size="21" fill="#18232d" text-anchor="start" class="bold">GPIO23</text>
<text x="751" y="748.72" font-size="21" fill="#9162ba" text-anchor="start" class="bold">→ DC</text>
<circle cx="159.04000000000008" cy="765.36" r="6" fill="#151b20" stroke="#9e956f" stroke-width="3"/>
<circle cx="344.96000000000004" cy="765.36" r="6" fill="#151b20" stroke="#9e956f" stroke-width="3"/>
<line x1="352.96000000000004" y1="765.36" x2="425" y2="765.36" stroke="#d7e0e8" stroke-width="2"/>
<text x="440" y="773.36" font-size="19" fill="#8794a1" text-anchor="start">R11</text>
<text x="512" y="773.36" font-size="20" fill="#8794a1" text-anchor="start">RUN</text>
<text x="751" y="773.36" font-size="18" fill="#8794a1" text-anchor="start">P4 reset — leave free</text>
<circle cx="159.04000000000008" cy="790.0" r="6" fill="#151b20" stroke="#9e956f" stroke-width="3"/>
<rect x="411" y="777.0" width="580" height="24" rx="4" fill="#eef4f8"/>
<line x1="352.96000000000004" y1="790.0" x2="425" y2="790.0" stroke="#df7031" stroke-width="3"/>
<circle cx="344.96000000000004" cy="790.0" r="7" fill="#df7031"/>
<text x="440" y="798.0" font-size="20" fill="#df7031" text-anchor="start" class="bold">R12</text>
<text x="512" y="798.0" font-size="21" fill="#18232d" text-anchor="start" class="bold">GPIO26</text>
<text x="751" y="798.0" font-size="21" fill="#df7031" text-anchor="start" class="bold">→ RES</text>
<circle cx="159.04000000000008" cy="814.6400000000001" r="6" fill="#151b20" stroke="#9e956f" stroke-width="3"/>
<circle cx="344.96000000000004" cy="814.6400000000001" r="6" fill="#151b20" stroke="#9e956f" stroke-width="3"/>
<line x1="352.96000000000004" y1="814.6400000000001" x2="425" y2="814.6400000000001" stroke="#d7e0e8" stroke-width="2"/>
<text x="440" y="822.6400000000001" font-size="19" fill="#8794a1" text-anchor="start">R13</text>
<text x="512" y="822.6400000000001" font-size="20" fill="#8794a1" text-anchor="start">GND</text>
<circle cx="159.04000000000008" cy="839.28" r="6" fill="#151b20" stroke="#9e956f" stroke-width="3"/>
<circle cx="344.96000000000004" cy="839.28" r="6" fill="#151b20" stroke="#9e956f" stroke-width="3"/>
<line x1="352.96000000000004" y1="839.28" x2="425" y2="839.28" stroke="#d7e0e8" stroke-width="2"/>
<text x="440" y="847.28" font-size="19" fill="#8794a1" text-anchor="start">R14</text>
<text x="512" y="847.28" font-size="20" fill="#8794a1" text-anchor="start">GPIO27</text>
<circle cx="159.04000000000008" cy="863.9200000000001" r="6" fill="#151b20" stroke="#9e956f" stroke-width="3"/>
<circle cx="344.96000000000004" cy="863.9200000000001" r="6" fill="#151b20" stroke="#9e956f" stroke-width="3"/>
<line x1="352.96000000000004" y1="863.9200000000001" x2="425" y2="863.9200000000001" stroke="#d7e0e8" stroke-width="2"/>
<text x="440" y="871.9200000000001" font-size="19" fill="#8794a1" text-anchor="start">R15</text>
<text x="512" y="871.9200000000001" font-size="20" fill="#8794a1" text-anchor="start">GPIO32</text>
<circle cx="159.04000000000008" cy="888.5600000000001" r="6" fill="#151b20" stroke="#9e956f" stroke-width="3"/>
<circle cx="344.96000000000004" cy="888.5600000000001" r="6" fill="#151b20" stroke="#9e956f" stroke-width="3"/>
<line x1="352.96000000000004" y1="888.5600000000001" x2="425" y2="888.5600000000001" stroke="#d7e0e8" stroke-width="2"/>
<text x="440" y="896.5600000000001" font-size="19" fill="#8794a1" text-anchor="start">R16</text>
<text x="512" y="896.5600000000001" font-size="20" fill="#8794a1" text-anchor="start">GPIO33</text>
<circle cx="159.04000000000008" cy="913.2" r="6" fill="#151b20" stroke="#9e956f" stroke-width="3"/>
<circle cx="344.96000000000004" cy="913.2" r="6" fill="#151b20" stroke="#9e956f" stroke-width="3"/>
<line x1="352.96000000000004" y1="913.2" x2="425" y2="913.2" stroke="#d7e0e8" stroke-width="2"/>
<text x="440" y="921.2" font-size="19" fill="#8794a1" text-anchor="start">R17</text>
<text x="512" y="921.2" font-size="20" fill="#8794a1" text-anchor="start">GPIO46</text>
<circle cx="159.04000000000008" cy="937.84" r="6" fill="#151b20" stroke="#9e956f" stroke-width="3"/>
<circle cx="344.96000000000004" cy="937.84" r="6" fill="#151b20" stroke="#9e956f" stroke-width="3"/>
<line x1="352.96000000000004" y1="937.84" x2="425" y2="937.84" stroke="#d7e0e8" stroke-width="2"/>
<text x="440" y="945.84" font-size="19" fill="#8794a1" text-anchor="start">R18</text>
<text x="512" y="945.84" font-size="20" fill="#8794a1" text-anchor="start">GND</text>
<circle cx="159.04000000000008" cy="962.48" r="6" fill="#151b20" stroke="#9e956f" stroke-width="3"/>
<circle cx="344.96000000000004" cy="962.48" r="6" fill="#151b20" stroke="#9e956f" stroke-width="3"/>
<line x1="352.96000000000004" y1="962.48" x2="425" y2="962.48" stroke="#d7e0e8" stroke-width="2"/>
<text x="440" y="970.48" font-size="19" fill="#8794a1" text-anchor="start">R19</text>
<text x="512" y="970.48" font-size="20" fill="#8794a1" text-anchor="start">GPIO47</text>
<circle cx="159.04000000000008" cy="987.1200000000001" r="6" fill="#151b20" stroke="#9e956f" stroke-width="3"/>
<circle cx="344.96000000000004" cy="987.1200000000001" r="6" fill="#151b20" stroke="#9e956f" stroke-width="3"/>
<line x1="352.96000000000004" y1="987.1200000000001" x2="425" y2="987.1200000000001" stroke="#d7e0e8" stroke-width="2"/>
<text x="440" y="995.1200000000001" font-size="19" fill="#8794a1" text-anchor="start">R20</text>
<text x="512" y="995.1200000000001" font-size="20" fill="#8794a1" text-anchor="start">GPIO48</text>
<text x="410" y="1094" font-size="23" fill="#18232d" text-anchor="start" class="bold">R1–R20 = right-header row numbers.</text>
<text x="410" y="1131" font-size="23" fill="#596879" text-anchor="start">Count downward from the USB-C end.</text>
<text x="410" y="1168" font-size="23" fill="#596879" text-anchor="start">Row number ≠ GPIO number.</text>
<rect x="1070" y="305" width="1260" height="925" rx="18" fill="#fff" stroke="#d7e0e8" stroke-width="2"/>
<rect x="1070" y="305" width="1260" height="83" rx="12" fill="#18232d"/>
<text x="1102" y="361" font-size="35" fill="#fff" text-anchor="start" class="bold">LCD MODULE · FRONT VIEW</text>
<text x="1102" y="429" font-size="25" fill="#596879" text-anchor="start">Screen facing you · eight solder pads at the top</text>
<rect x="1125" y="477" width="452" height="649" rx="13" fill="#256089" stroke="#123855" stroke-width="2"/>
<circle cx="1146" cy="498" r="12" fill="#fff" stroke="#bac3cb" stroke-width="3"/>
<circle cx="1146" cy="1105" r="12" fill="#fff" stroke="#bac3cb" stroke-width="3"/>
<circle cx="1556" cy="498" r="12" fill="#fff" stroke="#bac3cb" stroke-width="3"/>
<circle cx="1556" cy="1105" r="12" fill="#fff" stroke="#bac3cb" stroke-width="3"/>
<circle cx="1181" cy="504" r="8" fill="#526172" stroke="#e9d29c" stroke-width="3"/>
<text x="1181" y="540" font-size="17" fill="#fff" text-anchor="middle" class="bold">GND</text>
<text x="1181" y="468" font-size="18" fill="#596879" text-anchor="middle">1</text>
<circle cx="1226" cy="504" r="8" fill="#d72f53" stroke="#e9d29c" stroke-width="3"/>
<text x="1226" y="540" font-size="17" fill="#fff" text-anchor="middle" class="bold">VCC</text>
<text x="1226" y="468" font-size="18" fill="#596879" text-anchor="middle">2</text>
<circle cx="1271" cy="504" r="8" fill="#067eac" stroke="#e9d29c" stroke-width="3"/>
<text x="1271" y="540" font-size="17" fill="#fff" text-anchor="middle" class="bold">SCL</text>
<text x="1271" y="468" font-size="18" fill="#596879" text-anchor="middle">3</text>
<circle cx="1316" cy="504" r="8" fill="#0a997e" stroke="#e9d29c" stroke-width="3"/>
<text x="1316" y="540" font-size="17" fill="#fff" text-anchor="middle" class="bold">SDA</text>
<text x="1316" y="468" font-size="18" fill="#596879" text-anchor="middle">4</text>
<circle cx="1361" cy="504" r="8" fill="#df7031" stroke="#e9d29c" stroke-width="3"/>
<text x="1361" y="540" font-size="17" fill="#fff" text-anchor="middle" class="bold">RES</text>
<text x="1361" y="468" font-size="18" fill="#596879" text-anchor="middle">5</text>
<circle cx="1406" cy="504" r="8" fill="#9162ba" stroke="#e9d29c" stroke-width="3"/>
<text x="1406" y="540" font-size="17" fill="#fff" text-anchor="middle" class="bold">DC</text>
<text x="1406" y="468" font-size="18" fill="#596879" text-anchor="middle">6</text>
<circle cx="1451" cy="504" r="8" fill="#b28213" stroke="#e9d29c" stroke-width="3"/>
<text x="1451" y="540" font-size="17" fill="#fff" text-anchor="middle" class="bold">CS</text>
<text x="1451" y="468" font-size="18" fill="#596879" text-anchor="middle">7</text>
<circle cx="1496" cy="504" r="8" fill="#d72f53" stroke="#e9d29c" stroke-width="3"/>
<text x="1496" y="540" font-size="17" fill="#fff" text-anchor="middle" class="bold">BLK</text>
<text x="1496" y="468" font-size="18" fill="#596879" text-anchor="middle">8</text>
<rect x="1158" y="566" width="386" height="518" rx="3" fill="#1f2a32" stroke="#adb8c3" stroke-width="2"/>
<rect x="1170" y="578" width="362" height="494" rx="0" fill="#030709"/>
<text x="1351" y="755" font-size="65" fill="#c4e3ed" text-anchor="middle" class="bold">1.9″</text>
<text x="1351" y="813" font-size="32" fill="#8cbbcd" text-anchor="middle" class="bold">ST7789</text>
<text x="1351" y="860" font-size="29" fill="#8cbbcd" text-anchor="middle">170 × 320</text>
<text x="1351" y="923" font-size="23" fill="#8cbbcd" text-anchor="middle">Rotate for landscape</text>
<text x="1351" y="1174" font-size="18" fill="#596879" text-anchor="middle">Printed pad order, viewed from the screen side</text>
<text x="1625" y="486" font-size="23" fill="#596879" text-anchor="start" class="bold">LCD</text>
<text x="1845" y="486" font-size="23" fill="#596879" text-anchor="start" class="bold">CONNECT TO P4</text>
<rect x="1610" y="511" width="687" height="71" rx="7" fill="#f0f4f7"/>
<circle cx="1635" cy="536" r="7" fill="#526172"/>
<text x="1655" y="543" font-size="29" fill="#526172" text-anchor="start" class="bold">GND</text>
<line x1="1760" y1="535" x2="1815" y2="535" stroke="#526172" stroke-width="4"/>
<text x="1845" y="540" font-size="26" fill="#18232d" text-anchor="start" class="bold">GND · R8</text>
<text x="1845" y="568" font-size="19" fill="#596879" text-anchor="start">Common ground</text>
<rect x="1610" y="590" width="687" height="71" rx="7" fill="#f0f4f7"/>
<circle cx="1635" cy="615" r="7" fill="#d72f53"/>
<text x="1655" y="622" font-size="29" fill="#d72f53" text-anchor="start" class="bold">VCC</text>
<line x1="1760" y1="614" x2="1815" y2="614" stroke="#d72f53" stroke-width="4"/>
<text x="1845" y="619" font-size="26" fill="#18232d" text-anchor="start" class="bold">3V3 · R5</text>
<text x="1845" y="647" font-size="19" fill="#596879" text-anchor="start">LCD power</text>
<rect x="1610" y="669" width="687" height="71" rx="7" fill="#f0f4f7"/>
<circle cx="1635" cy="694" r="7" fill="#067eac"/>
<text x="1655" y="701" font-size="29" fill="#067eac" text-anchor="start" class="bold">SCL</text>
<line x1="1760" y1="693" x2="1815" y2="693" stroke="#067eac" stroke-width="4"/>
<text x="1845" y="698" font-size="26" fill="#18232d" text-anchor="start" class="bold">GPIO20 · R6</text>
<text x="1845" y="726" font-size="19" fill="#596879" text-anchor="start">SPI clock</text>
<rect x="1610" y="748" width="687" height="71" rx="7" fill="#f0f4f7"/>
<circle cx="1635" cy="773" r="7" fill="#0a997e"/>
<text x="1655" y="780" font-size="29" fill="#0a997e" text-anchor="start" class="bold">SDA</text>
<line x1="1760" y1="772" x2="1815" y2="772" stroke="#0a997e" stroke-width="4"/>
<text x="1845" y="777" font-size="26" fill="#18232d" text-anchor="start" class="bold">GPIO21 · R7</text>
<text x="1845" y="805" font-size="19" fill="#596879" text-anchor="start">SPI data / MOSI</text>
<rect x="1610" y="827" width="687" height="71" rx="7" fill="#f0f4f7"/>
<circle cx="1635" cy="852" r="7" fill="#df7031"/>
<text x="1655" y="859" font-size="29" fill="#df7031" text-anchor="start" class="bold">RES</text>
<line x1="1760" y1="851" x2="1815" y2="851" stroke="#df7031" stroke-width="4"/>
<text x="1845" y="856" font-size="26" fill="#18232d" text-anchor="start" class="bold">GPIO26 · R12</text>
<text x="1845" y="884" font-size="19" fill="#596879" text-anchor="start">LCD reset</text>
<rect x="1610" y="906" width="687" height="71" rx="7" fill="#f0f4f7"/>
<circle cx="1635" cy="931" r="7" fill="#9162ba"/>
<text x="1655" y="938" font-size="29" fill="#9162ba" text-anchor="start" class="bold">DC</text>
<line x1="1760" y1="930" x2="1815" y2="930" stroke="#9162ba" stroke-width="4"/>
<text x="1845" y="935" font-size="26" fill="#18232d" text-anchor="start" class="bold">GPIO23 · R10</text>
<text x="1845" y="963" font-size="19" fill="#596879" text-anchor="start">Data / command</text>
<rect x="1610" y="985" width="687" height="71" rx="7" fill="#f0f4f7"/>
<circle cx="1635" cy="1010" r="7" fill="#b28213"/>
<text x="1655" y="1017" font-size="29" fill="#b28213" text-anchor="start" class="bold">CS</text>
<line x1="1760" y1="1009" x2="1815" y2="1009" stroke="#b28213" stroke-width="4"/>
<text x="1845" y="1014" font-size="26" fill="#18232d" text-anchor="start" class="bold">GPIO22 · R9</text>
<text x="1845" y="1042" font-size="19" fill="#596879" text-anchor="start">Chip select</text>
<rect x="1610" y="1064" width="687" height="71" rx="7" fill="#f0f4f7"/>
<circle cx="1635" cy="1089" r="7" fill="#d72f53"/>
<text x="1655" y="1096" font-size="29" fill="#d72f53" text-anchor="start" class="bold">BLK</text>
<line x1="1760" y1="1088" x2="1815" y2="1088" stroke="#d72f53" stroke-width="4"/>
<text x="1845" y="1093" font-size="26" fill="#18232d" text-anchor="start" class="bold">3V3 · R5</text>
<text x="1845" y="1121" font-size="19" fill="#596879" text-anchor="start">Backlight on</text>
<rect x="70" y="1268" width="2260" height="224" rx="12" fill="#e6edf3"/>
<text x="103" y="1317" font-size="30" fill="#18232d" text-anchor="start" class="bold">ONE 3.3 V SUPPLY → TWO LCD CONNECTIONS</text>
<text x="107" y="1404" font-size="31" fill="#d72f53" text-anchor="start" class="bold">P4 R5 · 3V3</text>
<line x1="379" y1="1392" x2="687" y2="1392" stroke="#d72f53" stroke-width="6"/>
<circle cx="687" cy="1392" r="8" fill="#d72f53"/>
<line x1="687" y1="1357" x2="687" y2="1440" stroke="#d72f53" stroke-width="6"/>
<line x1="687" y1="1357" x2="960" y2="1357" stroke="#d72f53" stroke-width="6"/>
<line x1="687" y1="1440" x2="960" y2="1440" stroke="#d72f53" stroke-width="6"/>
<text x="991" y="1367" font-size="28" fill="#d72f53" text-anchor="start" class="bold">LCD VCC</text>
<text x="991" y="1450" font-size="28" fill="#d72f53" text-anchor="start" class="bold">LCD BLK</text>
<text x="1370" y="1368" font-size="27" fill="#18232d" text-anchor="start" class="bold">Split the 3V3 connection to VCC and BLK.</text>
<text x="1370" y="1410" font-size="25" fill="#596879" text-anchor="start">BLK is the backlight input; it stays on.</text>
<text x="1370" y="1452" font-size="25" fill="#596879" text-anchor="start">Do not use the 5 V servo-power feed.</text>
<rect x="70" y="1530" width="2260" height="226" rx="12" fill="#18232d"/>
<text x="104" y="1580" font-size="30" fill="#67d4ed" text-anchor="start" class="bold">SCL / SDA ON THIS LCD ARE SPI SIGNALS</text>
<text x="104" y="1629" font-size="27" fill="#fff" text-anchor="start">Use GPIO20 / GPIO21 — not the P4 pins labeled SDA / SCL for its onboard I²C bus.</text>
<text x="104" y="1674" font-size="27" fill="#fff" text-anchor="start">LCD RES connects to GPIO26. Leave P4 RUN / reset alone.</text>
<text x="104" y="1719" font-size="27" fill="#fff" text-anchor="start">Use the GPIO header. The P4 display ribbon connector is a different interface.</text>
<text x="75" y="1812" font-size="22" fill="#596879" text-anchor="start">2026-10-06 · Firmware 0.8.0-p4-color-face · Full instructions: LCD_FACE.md · Board illustrations are schematic, not to scale.</text>
</svg>
